HIERARCHY
ROOT newVegas:Hips
{
	OFFSET 0.000000 96.479958 0.000000
	CHANNELS 6 Xposition Yposition Zposition Xrotation Yrotation Zrotation
	JOINT newVegas:Pelvis
	{
		OFFSET 0.000000 0.000000 0.000000
		CHANNELS 3 Xrotation Yrotation Zrotation
		JOINT newVegas:LeftUpLeg
		{
			OFFSET 18.735201 -5.666702 -4.541200
			CHANNELS 3 Xrotation Yrotation Zrotation
			JOINT newVegas:LeftLeg
			{
				OFFSET -0.021200 -31.938179 0.493100
				CHANNELS 3 Xrotation Yrotation Zrotation
				JOINT newVegas:LeftFoot
				{
					OFFSET 0.021200 -31.938179 -4.336299
					CHANNELS 3 Xrotation Yrotation Zrotation
					JOINT newVegas:LeftToeBase
					{
						OFFSET 0.943001 -26.722000 15.023500
						CHANNELS 3 Xrotation Yrotation Zrotation
						End Site
						{
							OFFSET 0.000000 30.670183 0.000000
						}
					}
				}
				JOINT newVegas:Left_PantLeg
				{
					OFFSET 0.663870 -9.044666 -1.108900
					CHANNELS 3 Xrotation Yrotation Zrotation
					End Site
					{
						OFFSET 1.415995 20.635357 0.000000
					}
				}
			}
		}
		JOINT newVegas:RightUpLeg
		{
			OFFSET -18.735201 -5.666702 -4.541200
			CHANNELS 3 Xrotation Yrotation Zrotation
			JOINT newVegas:RightLeg
			{
				OFFSET 0.018946 -31.938133 0.493100
				CHANNELS 3 Xrotation Yrotation Zrotation
				JOINT newVegas:RightFoot
				{
					OFFSET -0.018946 -31.938126 -4.336299
					CHANNELS 3 Xrotation Yrotation Zrotation
					JOINT newVegas:RightToeBase
					{
						OFFSET -0.943001 -26.722004 15.023500
						CHANNELS 3 Xrotation Yrotation Zrotation
						End Site
						{
							OFFSET 0.000000 30.670187 0.000000
						}
					}
				}
				JOINT newVegas:Right_PantLeg
				{
					OFFSET -0.661674 -9.044716 -1.108900
					CHANNELS 3 Xrotation Yrotation Zrotation
					End Site
					{
						OFFSET -1.415958 20.635269 0.000000
					}
				}
			}
		}
	}
	JOINT newVegas:Spine
	{
		OFFSET 0.000000 10.199997 -0.299500
		CHANNELS 3 Xrotation Yrotation Zrotation
		JOINT newVegas:Spine1
		{
			OFFSET 0.000000 11.900002 -1.516600
			CHANNELS 3 Xrotation Yrotation Zrotation
			JOINT newVegas:Spine2
			{
				OFFSET 0.000000 13.600006 -2.842500
				CHANNELS 3 Xrotation Yrotation Zrotation
				JOINT newVegas:Neck
				{
					OFFSET 0.000000 9.624100 -2.890100
					CHANNELS 3 Xrotation Yrotation Zrotation
					JOINT newVegas:Head
					{
						OFFSET 0.000000 14.068802 -1.351900
						CHANNELS 3 Xrotation Yrotation Zrotation
						JOINT newVegas:Hair_Back
						{
							OFFSET 0.000000 3.231903 -17.524799
							CHANNELS 3 Xrotation Yrotation Zrotation
							End Site
							{
								OFFSET 0.000000 19.849884 0.000000
							}
						}
						JOINT newVegas:Hair_Front
						{
							OFFSET 0.000000 31.260406 4.573800
							CHANNELS 3 Xrotation Yrotation Zrotation
							JOINT newVegas:Hair_Front1
							{
								OFFSET 0.000000 2.284103 11.993300
								CHANNELS 3 Xrotation Yrotation Zrotation
								JOINT newVegas:Hair_Front2
								{
									OFFSET 0.000000 2.284103 11.993300
									CHANNELS 3 Xrotation Yrotation Zrotation
									End Site
									{
										OFFSET 0.000000 12.208862 0.000000
									}
								}
							}
						}
						JOINT newVegas:Jowel
						{
							OFFSET 0.000000 -7.458206 6.864100
							CHANNELS 3 Xrotation Yrotation Zrotation
							End Site
							{
								OFFSET 0.000000 19.849884 0.000000
							}
						}
					}
				}
				JOINT newVegas:LeftShoulder
				{
					OFFSET 15.263000 10.923401 -0.547700
					CHANNELS 3 Xrotation Yrotation Zrotation
					JOINT newVegas:LeftArm
					{
						OFFSET 25.438599 -2.830597 -13.032500
						CHANNELS 3 Xrotation Yrotation Zrotation
						JOINT newVegas:LeftForeArm
						{
							OFFSET 29.960503 0.000000 0.000000
							CHANNELS 3 Xrotation Yrotation Zrotation
							JOINT newVegas:LeftHand
							{
								OFFSET 27.849251 0.000000 0.000000
								CHANNELS 3 Xrotation Yrotation Zrotation
								JOINT newVegas:LeftHandThumb1
								{
									OFFSET 4.487587 -3.305161 6.305391
									CHANNELS 3 Xrotation Yrotation Zrotation
									JOINT newVegas:LeftHandThumb2
									{
										OFFSET 5.480453 -3.164139 3.164143
										CHANNELS 3 Xrotation Yrotation Zrotation
										JOINT newVegas:LeftHandThumb3
										{
											OFFSET 5.159721 -2.978973 2.978967
											CHANNELS 3 Xrotation Yrotation Zrotation
											End Site
											{
												OFFSET 2.494507 5.926697 1.738678
											}
										}
									}
								}
								JOINT newVegas:LeftHandIndex1
								{
									OFFSET 18.578728 -0.527832 5.208049
									CHANNELS 3 Xrotation Yrotation Zrotation
									JOINT newVegas:LeftHandIndex2
									{
										OFFSET 3.192009 0.000000 0.000000
										CHANNELS 3 Xrotation Yrotation Zrotation
										JOINT newVegas:LeftHandIndex3
										{
											OFFSET 3.835129 0.000000 0.000000
											CHANNELS 3 Xrotation Yrotation Zrotation
											End Site
											{
												OFFSET -0.034599 3.816971 0.371180
											}
										}
									}
								}
								JOINT newVegas:LeftHandMiddle1
								{
									OFFSET 18.476105 0.000000 0.000000
									CHANNELS 3 Xrotation Yrotation Zrotation
									JOINT newVegas:LeftHandMiddle2
									{
										OFFSET 3.324875 0.000000 0.000000
										CHANNELS 3 Xrotation Yrotation Zrotation
										JOINT newVegas:LeftHandMiddle3
										{
											OFFSET 4.596550 0.000000 0.000000
											CHANNELS 3 Xrotation Yrotation Zrotation
											End Site
											{
												OFFSET 0.057701 4.578827 0.399218
											}
										}
									}
								}
								JOINT newVegas:LeftHandRing1
								{
									OFFSET 17.732719 0.121887 -4.201567
									CHANNELS 3 Xrotation Yrotation Zrotation
									JOINT newVegas:LeftHandRing2
									{
										OFFSET 2.733170 0.000000 0.000000
										CHANNELS 3 Xrotation Yrotation Zrotation
										JOINT newVegas:LeftHandRing3
										{
											OFFSET 3.178268 0.000000 0.000000
											CHANNELS 3 Xrotation Yrotation Zrotation
											End Site
											{
												OFFSET 0.119102 3.170624 0.185394
											}
										}
									}
								}
								JOINT newVegas:LeftHandPinky1
								{
									OFFSET 15.989624 -0.606689 -7.535461
									CHANNELS 3 Xrotation Yrotation Zrotation
									JOINT newVegas:LeftHandPinky2
									{
										OFFSET 2.538986 0.000000 0.000000
										CHANNELS 3 Xrotation Yrotation Zrotation
										JOINT newVegas:LeftHandPinky3
										{
											OFFSET 2.593102 0.000000 0.000000
											CHANNELS 3 Xrotation Yrotation Zrotation
											End Site
											{
												OFFSET -0.150902 2.584198 0.152708
											}
										}
									}
								}
							}
							JOINT newVegas:Left_Sleeve
							{
								OFFSET 0.267448 -0.649796 0.577675
								CHANNELS 3 Xrotation Yrotation Zrotation
								End Site
								{
									OFFSET 0.000000 15.991241 0.000000
								}
							}
							JOINT newVegas:Left_CapeC
							{
								OFFSET 15.715958 -8.608795 -6.935905
								CHANNELS 3 Xrotation Yrotation Zrotation
								JOINT newVegas:Left_CapeC1
								{
									OFFSET 0.000000 -8.688499 0.000000
									CHANNELS 3 Xrotation Yrotation Zrotation
									End Site
									{
										OFFSET 0.000000 8.688499 0.000000
									}
								}
							}
						}
						JOINT newVegas:Left_CapeB
						{
							OFFSET 26.118385 -8.608795 -7.079235
							CHANNELS 3 Xrotation Yrotation Zrotation
							JOINT newVegas:Left_CapeB1
							{
								OFFSET 0.000000 -8.688499 0.000000
								CHANNELS 3 Xrotation Yrotation Zrotation
								End Site
								{
									OFFSET 0.000000 8.688499 0.000000
								}
							}
						}
						JOINT newVegas:Left_CapeA
						{
							OFFSET 5.115639 -8.608795 -10.395809
							CHANNELS 3 Xrotation Yrotation Zrotation
							JOINT newVegas:Left_CapeA1
							{
								OFFSET 0.000000 -8.688499 0.000000
								CHANNELS 3 Xrotation Yrotation Zrotation
								End Site
								{
									OFFSET 0.000000 8.688499 0.000000
								}
							}
						}
					}
				}
				JOINT newVegas:RightShoulder
				{
					OFFSET -15.263000 10.923401 -0.547700
					CHANNELS 3 Xrotation Yrotation Zrotation
					JOINT newVegas:RightArm
					{
						OFFSET -25.438599 -2.830597 -13.032500
						CHANNELS 3 Xrotation Yrotation Zrotation
						JOINT newVegas:RightForeArm
						{
							OFFSET -29.960503 0.000000 0.000000
							CHANNELS 3 Xrotation Yrotation Zrotation
							JOINT newVegas:RightHand
							{
								OFFSET -27.849251 0.000000 0.000000
								CHANNELS 3 Xrotation Yrotation Zrotation
								JOINT newVegas:RightHandThumb1
								{
									OFFSET -4.487587 -3.305161 6.305391
									CHANNELS 3 Xrotation Yrotation Zrotation
									JOINT newVegas:RightHandThumb2
									{
										OFFSET -5.480453 -3.164139 3.164143
										CHANNELS 3 Xrotation Yrotation Zrotation
										JOINT newVegas:RightHandThumb3
										{
											OFFSET -5.159721 -2.978973 2.978967
											CHANNELS 3 Xrotation Yrotation Zrotation
											End Site
											{
												OFFSET -2.494507 5.926697 1.738678
											}
										}
									}
								}
								JOINT newVegas:RightHandIndex1
								{
									OFFSET -18.578728 -0.527832 5.208049
									CHANNELS 3 Xrotation Yrotation Zrotation
									JOINT newVegas:RightHandIndex2
									{
										OFFSET -3.192009 0.000000 0.000000
										CHANNELS 3 Xrotation Yrotation Zrotation
										JOINT newVegas:RightHandIndex3
										{
											OFFSET -3.835129 0.000000 0.000000
											CHANNELS 3 Xrotation Yrotation Zrotation
											End Site
											{
												OFFSET 0.034599 3.816971 0.371180
											}
										}
									}
								}
								JOINT newVegas:RightHandMiddle1
								{
									OFFSET -18.476105 0.000000 0.000000
									CHANNELS 3 Xrotation Yrotation Zrotation
									JOINT newVegas:RightHandMiddle2
									{
										OFFSET -3.324875 0.000000 0.000000
										CHANNELS 3 Xrotation Yrotation Zrotation
										JOINT newVegas:RightHandMiddle3
										{
											OFFSET -4.596550 0.000000 0.000000
											CHANNELS 3 Xrotation Yrotation Zrotation
											End Site
											{
												OFFSET -0.057701 4.578827 0.399218
											}
										}
									}
								}
								JOINT newVegas:RightHandRing1
								{
									OFFSET -17.732719 0.121887 -4.201567
									CHANNELS 3 Xrotation Yrotation Zrotation
									JOINT newVegas:RightHandRing2
									{
										OFFSET -2.733170 0.000000 0.000000
										CHANNELS 3 Xrotation Yrotation Zrotation
										JOINT newVegas:RightHandRing3
										{
											OFFSET -3.178268 0.000000 0.000000
											CHANNELS 3 Xrotation Yrotation Zrotation
											End Site
											{
												OFFSET -0.119102 3.170624 0.185394
											}
										}
									}
								}
								JOINT newVegas:RightHandPinky1
								{
									OFFSET -15.989624 -0.606689 -7.535461
									CHANNELS 3 Xrotation Yrotation Zrotation
									JOINT newVegas:RightHandPinky2
									{
										OFFSET -2.538986 0.000000 0.000000
										CHANNELS 3 Xrotation Yrotation Zrotation
										JOINT newVegas:RightHandPinky3
										{
											OFFSET -2.593102 0.000000 0.000000
											CHANNELS 3 Xrotation Yrotation Zrotation
											End Site
											{
												OFFSET 0.150902 2.584198 0.152708
											}
										}
									}
								}
							}
							JOINT newVegas:Right_CapeC
							{
								OFFSET -15.715958 -8.608795 -6.935905
								CHANNELS 3 Xrotation Yrotation Zrotation
								JOINT newVegas:Right_CapeC1
								{
									OFFSET 0.000000 -8.688499 0.000000
									CHANNELS 3 Xrotation Yrotation Zrotation
									End Site
									{
										OFFSET 0.000000 8.688499 0.000000
									}
								}
							}
							JOINT newVegas:Right_Sleeve
							{
								OFFSET -0.267448 -0.649994 0.577675
								CHANNELS 3 Xrotation Yrotation Zrotation
								End Site
								{
									OFFSET 0.000000 15.991302 0.000000
								}
							}
						}
						JOINT newVegas:Right_CapeA
						{
							OFFSET -5.115540 -8.608795 -10.395824
							CHANNELS 3 Xrotation Yrotation Zrotation
							JOINT newVegas:Right_CapeA1
							{
								OFFSET 0.000000 -8.688499 0.000000
								CHANNELS 3 Xrotation Yrotation Zrotation
								End Site
								{
									OFFSET 0.000000 8.688499 0.000000
								}
							}
						}
						JOINT newVegas:Right_CapeB
						{
							OFFSET -26.118187 -8.608795 -7.079266
							CHANNELS 3 Xrotation Yrotation Zrotation
							JOINT newVegas:Right_CapeB1
							{
								OFFSET 0.000000 -8.688499 0.000000
								CHANNELS 3 Xrotation Yrotation Zrotation
								End Site
								{
									OFFSET 0.000000 8.688499 0.000000
								}
							}
						}
					}
				}
				JOINT newVegas:Left_Collar
				{
					OFFSET 18.625099 8.655502 8.828100
					CHANNELS 3 Xrotation Yrotation Zrotation
					JOINT newVegas:Left_Collar1
					{
						OFFSET 14.783401 10.540405 -1.259500
						CHANNELS 3 Xrotation Yrotation Zrotation
						End Site
						{
							OFFSET 0.000000 18.199875 0.000000
						}
					}
				}
				JOINT newVegas:Collar_Back
				{
					OFFSET 0.000000 15.630707 -20.132601
					CHANNELS 3 Xrotation Yrotation Zrotation
					End Site
					{
						OFFSET 0.000000 22.523010 0.000000
					}
				}
				JOINT newVegas:Left_Peck
				{
					OFFSET 17.239599 -5.132599 25.482599
					CHANNELS 3 Xrotation Yrotation Zrotation
					End Site
					{
						OFFSET 0.000000 22.523010 0.000000
					}
				}
				JOINT newVegas:Right_Peck
				{
					OFFSET -17.239599 -5.132202 25.482599
					CHANNELS 3 Xrotation Yrotation Zrotation
					End Site
					{
						OFFSET 0.000000 22.523010 0.000000
					}
				}
				JOINT newVegas:Right_Collar
				{
					OFFSET -18.625099 8.655792 8.828100
					CHANNELS 3 Xrotation Yrotation Zrotation
					JOINT newVegas:Right_Collar1
					{
						OFFSET -14.783401 10.539993 -1.259500
						CHANNELS 3 Xrotation Yrotation Zrotation
						End Site
						{
							OFFSET 0.000000 18.199631 0.000000
						}
					}
				}
			}
		}
		JOINT newVegas:Belly
		{
			OFFSET 0.000000 -6.540398 9.014299
			CHANNELS 3 Xrotation Yrotation Zrotation
			End Site
			{
				OFFSET 0.000000 11.566666 0.000000
			}
		}
	}
	JOINT newVegas:ElvisFacialAnim_Joint
	{
		OFFSET 1.000000 -95.330101 -8.825800
		CHANNELS 3 Xrotation Yrotation Zrotation
		End Site
		{
			OFFSET 0.000000 35.315800 0.000000
		}
	}
}
MOTION
Frames: 4
Frame Time: 0.033333
-88.513435 40.690826 18.217712 88.852947 -65.128340 86.838212 -0.000002 0.000000 -0.000000 -14.162393 -0.178379 9.955396 69.754345 21.099962 0.211450 38.110205 5.172403 27.758246 0.000002 -0.000002 -0.000002 -0.000001 -0.000001 0.000001 -27.968061 18.171898 -2.061160 92.757889 -6.174955 -9.105590 46.777807 0.877003 2.558264 -0.000001 -0.000001 -0.000001 -0.000000 -0.000001 -0.000003 7.068018 -0.722479 -0.257653 -0.919647 -1.249983 1.638834 -0.885203 -1.236237 1.656203 -5.993995 -3.634307 2.460365 -5.993987 -3.634301 2.460358 0.000001 -0.000001 0.000001 -5.993994 -3.634300 2.460363 -5.993963 -3.634319 2.460366 -0.000000 0.000001 -0.000000 0.000001 -0.000001 0.000000 -9.813273 -11.134613 -9.445523 -1.596203 -11.122258 -45.778995 -31.733445 -76.198171 -34.754888 -10.512411 8.063821 17.843673 -0.301680 -2.960243 10.314426 -2.404487 7.625887 -7.302105 -0.000003 -0.000002 0.000002 13.231793 -0.980592 25.346958 -0.182800 0.289410 -16.438705 -0.000002 -0.000001 -0.000001 8.635475 -0.444133 13.751517 0.175996 0.600755 -15.234711 -0.000001 0.000000 -0.000002 6.188687 3.022449 -1.548312 0.007014 0.223784 -15.458747 -0.000001 0.000001 0.000000 -5.589020 7.635100 0.782844 0.173288 0.227443 -31.921408 -0.000000 -0.000005 0.000001 -0.000001 -0.000003 0.000003 -0.000001 -0.000003 0.000003 -0.000002 -0.000003 0.000003 -0.000001 0.000000 0.000000 -0.000001 0.000000 0.000000 -0.000001 0.000000 0.000000 -0.000000 -0.000001 -0.000000 -10.522198 8.268932 15.027306 25.923262 -12.836588 56.664790 196.783433 154.439019 -171.178174 -4.853362 -20.307954 7.994002 -0.553682 2.178263 -16.227821 2.349600 -20.134006 1.948523 0.000001 -0.000002 -0.000001 19.394353 11.382896 -10.944823 -0.113269 -0.336519 23.561299 0.000001 0.000000 -0.000001 4.348748 2.392518 -2.348811 0.359979 -0.471832 29.352052 0.000001 0.000001 -0.000001 -6.814260 -10.571885 8.187971 0.106492 -0.117187 28.617557 -0.000003 -0.000003 -0.000000 -19.111627 -19.994361 8.489903 0.240910 -0.079552 39.306284 -0.000003 0.000001 0.000001 0.000001 0.000000 -0.000002 0.000003 0.000000 -0.000000 0.000001 0.000000 -0.000001 -0.000000 -0.000003 -0.000000 -0.000001 -0.000002 -0.000000 -0.000000 -0.000003 -0.000000 -0.000001 -0.000002 -0.000000 0.000000 0.000000 -0.000000 0.000000 0.000000 -0.000000 0.000000 0.000000 -0.000000 0.000000 0.000000 -0.000000 0.000000 0.000000 -0.000000 0.000000 0.000000 -0.000000 0.000000 0.000000 -0.000000 -0.000003 0.000000 -0.000000 -0.000002 0.000000 -0.000000 
-92.357376 39.367455 18.411226 88.657297 -61.674313 86.387604 0.000001 -0.000000 0.000000 -12.490860 -0.191416 9.102987 66.978201 19.805068 1.289059 36.080693 4.582102 27.877926 -0.000001 0.000000 -0.000001 0.000001 -0.000002 -0.000000 -24.058525 14.996655 -2.643347 89.840087 -5.450712 -10.088900 43.828737 -0.687377 3.405108 -0.000001 0.000001 0.000001 -0.000000 -0.000000 -0.000002 6.893074 -0.738922 -0.003603 -1.111698 -1.352610 1.868841 -1.077982 -1.335099 1.887749 -6.709820 -3.217536 2.299260 -6.709827 -3.217534 2.299266 0.000001 -0.000000 -0.000000 -6.709863 -3.217516 2.299257 -6.709755 -3.217554 2.299270 -0.000000 -0.000000 -0.000000 0.000001 -0.000000 -0.000000 -9.951113 -10.616433 -9.611081 -1.082592 -9.707894 -46.424987 -30.430740 -77.355820 -32.779290 -10.279988 9.378046 13.666510 -0.320140 -3.094252 10.266577 -2.027821 8.502843 -6.897662 -0.000000 -0.000002 -0.000001 13.227180 -0.982064 24.290378 -0.181799 0.290791 -17.495666 -0.000001 -0.000000 -0.000001 8.622480 -0.438088 12.694562 0.180695 0.605752 -16.291710 -0.000001 0.000001 0.000002 6.188401 3.023497 -2.604893 0.007970 0.230804 -16.515664 -0.000002 0.000001 -0.000001 -5.555085 7.623592 -0.274786 0.176462 0.231946 -32.978373 -0.000001 -0.000005 0.000001 0.000001 0.000002 -0.000001 0.000001 0.000002 -0.000001 -0.000000 0.000002 -0.000001 -0.000001 -0.000001 0.000001 -0.000001 -0.000002 0.000000 -0.000001 -0.000001 0.000001 -0.000001 -0.000002 0.000000 -10.513642 8.468367 14.109465 28.088216 -13.742860 58.995062 197.099711 157.084379 -170.621950 -4.752097 -18.256841 9.386579 0.259769 2.385600 -14.825149 3.316663 -22.982711 0.854893 0.000004 -0.000002 -0.000001 19.460370 11.548957 -7.262825 -0.111110 -0.338576 25.619652 0.000003 0.000001 -0.000002 4.290316 2.363559 1.362141 0.369382 -0.486821 33.061705 0.000003 -0.000001 0.000002 -6.898924 -10.650152 11.893467 0.117254 -0.137929 32.327094 -0.000001 -0.000001 0.000002 -19.242808 -20.094017 12.183369 0.253059 -0.092612 43.015876 -0.000000 -0.000000 0.000000 -0.000000 0.000002 -0.000000 0.000000 -0.000002 0.000000 -0.000000 0.000002 -0.000001 0.000001 0.000002 0.000002 0.000001 0.000003 0.000002 0.000001 0.000002 0.000002 0.000001 0.000003 0.000002 0.000004 0.000000 -0.000000 0.000004 0.000000 -0.000000 0.000004 0.000000 -0.000000 0.000004 0.000000 -0.000000 0.000004 0.000000 -0.000000 0.000004 0.000000 -0.000000 0.000004 0.000000 -0.000000 0.000001 0.000000 -0.000000 0.000001 -0.000000 0.000000 
-96.159325 37.515343 18.591555 91.047405 -57.314733 88.251918 0.000000 -0.000000 0.000000 -10.036652 -0.003246 8.250752 62.149811 19.827501 2.351409 37.212547 4.798311 27.543020 0.000001 -0.000001 -0.000000 -0.000000 -0.000001 0.000000 -21.439477 12.923287 -2.558156 86.724251 -4.607409 -11.464274 41.597792 -1.116586 3.455224 -0.000002 -0.000003 0.000000 0.000001 -0.000001 -0.000001 6.586498 -0.676560 0.351419 -1.446492 -1.240193 2.060359 -1.415210 -1.217430 2.079090 -7.573127 -2.737856 2.370197 -7.573131 -2.737851 2.370195 -0.000001 -0.000000 0.000000 -7.573196 -2.737830 2.370190 -7.572973 -2.737871 2.370212 0.000000 0.000002 -0.000000 -0.000001 -0.000000 0.000000 -10.426384 -9.638934 -10.352215 4.781952 -5.768039 -45.267441 -23.469153 -82.901435 -26.236133 -11.020374 14.340727 8.822569 -0.371505 -3.465634 10.133636 -1.011063 10.945160 -5.800450 0.000003 0.000000 -0.000001 13.222354 -0.985518 21.362212 -0.178953 0.293740 -20.424637 0.000002 0.000002 -0.000000 8.588822 -0.419505 9.765612 0.193118 0.619166 -19.220719 -0.000003 -0.000001 0.000003 6.182435 3.031871 -5.532714 0.013043 0.250374 -19.444601 0.000002 0.000001 0.000001 -5.487921 7.599315 -3.205227 0.185842 0.243683 -35.907315 -0.000001 0.000000 0.000001 0.000003 -0.000001 -0.000003 0.000003 -0.000001 -0.000003 0.000003 -0.000001 -0.000003 0.000001 0.000000 0.000003 0.000001 -0.000001 0.000002 0.000001 0.000000 0.000003 -0.000001 -0.000000 0.000002 -10.901632 8.938571 14.233244 27.378912 -13.994748 60.309191 202.234388 162.699013 -171.459960 -5.610378 -14.897717 10.906299 0.855114 2.731828 -13.705931 3.950308 -24.920705 0.129138 -0.000000 0.000000 -0.000002 19.517467 11.692926 -4.770142 -0.109678 -0.340288 27.013803 -0.000003 0.000000 -0.000001 4.245038 2.345526 3.875475 0.379707 -0.496375 35.574347 -0.000003 -0.000001 0.000000 -6.986536 -10.735451 14.401517 0.123618 -0.152875 34.839688 0.000002 -0.000002 -0.000004 -19.382682 -20.216107 14.676912 0.261736 -0.100981 45.528511 0.000001 -0.000000 0.000002 0.000001 0.000001 0.000000 0.000001 0.000001 -0.000000 0.000001 0.000001 0.000001 0.000000 0.000001 0.000001 -0.000000 0.000002 0.000000 0.000000 0.000001 0.000001 -0.000000 0.000002 0.000001 0.000001 -0.000000 0.000000 0.000001 -0.000000 0.000000 0.000001 -0.000000 0.000000 0.000001 -0.000000 0.000000 0.000001 -0.000000 0.000000 0.000001 -0.000000 0.000000 0.000001 -0.000000 0.000000 0.000004 -0.000000 0.000000 0.000000 -0.000000 0.000000 
-100.215561 35.365250 18.668442 92.772813 -52.695374 89.694317 0.000000 0.000000 0.000000 -8.327607 0.127768 7.201811 59.195146 19.744692 3.340198 35.830629 4.071661 26.453987 -0.000002 0.000000 -0.000001 -0.000000 0.000000 -0.000000 -17.794195 11.175381 -2.818392 81.974093 -4.580962 -13.291570 40.312378 -0.950854 4.617551 -0.000003 -0.000000 0.000002 0.000000 -0.000000 -0.000002 6.152298 -0.503381 0.531030 -1.914634 -0.957388 2.166648 -1.886391 -0.927778 2.183236 -8.610869 -2.194118 2.452144 -8.610866 -2.194130 2.452141 -0.000002 -0.000000 -0.000000 -8.610814 -2.194113 2.452135 -8.610883 -2.194177 2.452149 -0.000000 0.000000 0.000001 -0.000002 -0.000000 -0.000000 -11.089643 -8.512728 -10.841301 13.543530 -1.427062 -44.286629 60.963557 -84.636624 56.907903 -12.817679 20.000203 2.049946 -0.441636 -3.965530 9.954113 0.298388 14.260139 -4.374021 -0.000000 0.000000 -0.000004 13.233998 -0.989477 17.419190 -0.174944 0.297361 -24.368407 0.000000 0.000002 -0.000001 8.545771 -0.390240 5.821914 0.208827 0.635920 -23.164488 0.000002 -0.000003 -0.000001 6.163751 3.056583 -9.474855 0.022853 0.276966 -23.388284 0.000000 -0.000000 -0.000003 -5.458019 7.589596 -7.149313 0.199255 0.258565 -39.851084 0.000000 -0.000005 0.000000 -0.000001 0.000001 -0.000001 -0.000001 0.000001 -0.000001 -0.000002 0.000001 -0.000001 0.000000 0.000001 -0.000000 0.000000 0.000000 -0.000002 0.000000 0.000001 -0.000000 -0.000001 0.000000 -0.000001 -11.652181 9.643932 15.094834 27.184612 -12.867584 61.072539 211.108252 166.828163 -171.760980 -8.083080 -11.827238 11.944697 1.096719 3.240143 -13.054774 4.117640 -25.434036 -0.061938 0.000003 -0.000001 -0.000002 19.535096 11.736668 -4.107551 -0.109271 -0.341427 27.375772 -0.000004 -0.000001 -0.000001 4.231539 2.340479 4.543932 0.381333 -0.499890 36.242667 -0.000003 -0.000004 -0.000005 -7.014155 -10.763321 15.068377 0.126418 -0.156309 35.508009 0.000000 0.000002 0.000003 -19.427184 -20.257431 15.338921 0.263885 -0.103148 46.196804 -0.000000 0.000003 0.000001 0.000001 0.000000 0.000001 -0.000003 0.000000 0.000002 0.000001 0.000000 0.000002 -0.000000 0.000000 -0.000000 -0.000001 0.000001 0.000001 -0.000000 0.000000 -0.000000 -0.000001 -0.000000 0.000001 0.000004 0.000000 -0.000000 0.000004 0.000000 -0.000000 0.000004 0.000000 -0.000000 0.000004 0.000000 -0.000000 0.000004 0.000000 -0.000000 0.000004 0.000000 -0.000000 0.000004 0.000000 -0.000000 0.000002 0.000000 -0.000000 0.000000 0.000000 0.000000 
